<mxfile host="app.diagrams.net" agent="Mozilla/5.0 (Windows NT 10.0; Win64; x64) AppleWebKit/537.36 (KHTML, like Gecko) Chrome/128.0.0.0 Safari/537.36 Edg/128.0.0.0" version="24.7.12">
  <diagram id="C5RBs43oDa-KdzZeNtuy" name="Page-1">
    <mxGraphModel dx="1178" dy="460" grid="1" gridSize="10" guides="1" tooltips="1" connect="1" arrows="1" fold="1" page="1" pageScale="1" pageWidth="827" pageHeight="1169" math="0" shadow="0">
      <root>
        <mxCell id="WIyWlLk6GJQsqaUBKTNV-0" />
        <mxCell id="WIyWlLk6GJQsqaUBKTNV-1" parent="WIyWlLk6GJQsqaUBKTNV-0" />
        <mxCell id="PWz0KlF3nAsmwiw8dwft-7" style="edgeStyle=orthogonalEdgeStyle;rounded=0;orthogonalLoop=1;jettySize=auto;html=1;exitX=0.5;exitY=1;exitDx=0;exitDy=0;entryX=0.5;entryY=0;entryDx=0;entryDy=0;" edge="1" parent="WIyWlLk6GJQsqaUBKTNV-1" source="WIyWlLk6GJQsqaUBKTNV-3" target="PWz0KlF3nAsmwiw8dwft-0">
          <mxGeometry relative="1" as="geometry" />
        </mxCell>
        <mxCell id="WIyWlLk6GJQsqaUBKTNV-3" value="开始" style="rounded=1;whiteSpace=wrap;html=1;fontSize=12;glass=0;strokeWidth=1;shadow=0;" parent="WIyWlLk6GJQsqaUBKTNV-1" vertex="1">
          <mxGeometry x="160" y="40" width="120" height="40" as="geometry" />
        </mxCell>
        <mxCell id="PWz0KlF3nAsmwiw8dwft-9" style="edgeStyle=orthogonalEdgeStyle;rounded=0;orthogonalLoop=1;jettySize=auto;html=1;exitX=0.5;exitY=1;exitDx=0;exitDy=0;entryX=0.5;entryY=0;entryDx=0;entryDy=0;" edge="1" parent="WIyWlLk6GJQsqaUBKTNV-1" source="PWz0KlF3nAsmwiw8dwft-0" target="PWz0KlF3nAsmwiw8dwft-8">
          <mxGeometry relative="1" as="geometry" />
        </mxCell>
        <mxCell id="PWz0KlF3nAsmwiw8dwft-0" value="启发式初始化" style="rounded=1;whiteSpace=wrap;html=1;fontSize=12;glass=0;strokeWidth=1;shadow=0;" vertex="1" parent="WIyWlLk6GJQsqaUBKTNV-1">
          <mxGeometry x="160" y="120" width="120" height="40" as="geometry" />
        </mxCell>
        <mxCell id="PWz0KlF3nAsmwiw8dwft-6" style="edgeStyle=orthogonalEdgeStyle;rounded=0;orthogonalLoop=1;jettySize=auto;html=1;exitX=0;exitY=0.5;exitDx=0;exitDy=0;entryX=1;entryY=0.5;entryDx=0;entryDy=0;" edge="1" parent="WIyWlLk6GJQsqaUBKTNV-1" source="PWz0KlF3nAsmwiw8dwft-2" target="PWz0KlF3nAsmwiw8dwft-0">
          <mxGeometry relative="1" as="geometry" />
        </mxCell>
        <mxCell id="PWz0KlF3nAsmwiw8dwft-2" value="服务请求类型&lt;div&gt;用户移动轨迹&lt;/div&gt;" style="rounded=0;whiteSpace=wrap;html=1;" vertex="1" parent="WIyWlLk6GJQsqaUBKTNV-1">
          <mxGeometry x="340" y="115" width="110" height="50" as="geometry" />
        </mxCell>
        <mxCell id="PWz0KlF3nAsmwiw8dwft-11" style="edgeStyle=orthogonalEdgeStyle;rounded=0;orthogonalLoop=1;jettySize=auto;html=1;entryX=0.5;entryY=0;entryDx=0;entryDy=0;" edge="1" parent="WIyWlLk6GJQsqaUBKTNV-1" source="PWz0KlF3nAsmwiw8dwft-8" target="PWz0KlF3nAsmwiw8dwft-10">
          <mxGeometry relative="1" as="geometry" />
        </mxCell>
        <mxCell id="PWz0KlF3nAsmwiw8dwft-8" value="计算初始解的能量" style="rounded=1;whiteSpace=wrap;html=1;fontSize=12;glass=0;strokeWidth=1;shadow=0;" vertex="1" parent="WIyWlLk6GJQsqaUBKTNV-1">
          <mxGeometry x="160" y="200" width="120" height="40" as="geometry" />
        </mxCell>
        <mxCell id="PWz0KlF3nAsmwiw8dwft-15" style="edgeStyle=orthogonalEdgeStyle;rounded=0;orthogonalLoop=1;jettySize=auto;html=1;exitX=0.5;exitY=1;exitDx=0;exitDy=0;entryX=0.5;entryY=0;entryDx=0;entryDy=0;" edge="1" parent="WIyWlLk6GJQsqaUBKTNV-1" source="PWz0KlF3nAsmwiw8dwft-10" target="PWz0KlF3nAsmwiw8dwft-14">
          <mxGeometry relative="1" as="geometry" />
        </mxCell>
        <mxCell id="PWz0KlF3nAsmwiw8dwft-10" value="对当前解进行扰动" style="rounded=1;whiteSpace=wrap;html=1;fontSize=12;glass=0;strokeWidth=1;shadow=0;" vertex="1" parent="WIyWlLk6GJQsqaUBKTNV-1">
          <mxGeometry x="160" y="284" width="120" height="40" as="geometry" />
        </mxCell>
        <mxCell id="PWz0KlF3nAsmwiw8dwft-12" value="&lt;div&gt;用户移动轨迹&lt;/div&gt;&lt;div&gt;边缘服务器负载&lt;/div&gt;" style="rounded=0;whiteSpace=wrap;html=1;" vertex="1" parent="WIyWlLk6GJQsqaUBKTNV-1">
          <mxGeometry x="340" y="279" width="110" height="50" as="geometry" />
        </mxCell>
        <mxCell id="PWz0KlF3nAsmwiw8dwft-13" style="edgeStyle=orthogonalEdgeStyle;rounded=0;orthogonalLoop=1;jettySize=auto;html=1;exitX=0;exitY=0.5;exitDx=0;exitDy=0;entryX=1;entryY=0.5;entryDx=0;entryDy=0;" edge="1" parent="WIyWlLk6GJQsqaUBKTNV-1">
          <mxGeometry relative="1" as="geometry">
            <mxPoint x="340" y="304" as="sourcePoint" />
            <mxPoint x="280" y="304" as="targetPoint" />
          </mxGeometry>
        </mxCell>
        <mxCell id="PWz0KlF3nAsmwiw8dwft-18" style="edgeStyle=orthogonalEdgeStyle;rounded=0;orthogonalLoop=1;jettySize=auto;html=1;exitX=1;exitY=0.5;exitDx=0;exitDy=0;entryX=0.5;entryY=0;entryDx=0;entryDy=0;" edge="1" parent="WIyWlLk6GJQsqaUBKTNV-1" source="PWz0KlF3nAsmwiw8dwft-14" target="PWz0KlF3nAsmwiw8dwft-17">
          <mxGeometry relative="1" as="geometry" />
        </mxCell>
        <mxCell id="PWz0KlF3nAsmwiw8dwft-21" value="否" style="edgeLabel;html=1;align=center;verticalAlign=middle;resizable=0;points=[];" vertex="1" connectable="0" parent="PWz0KlF3nAsmwiw8dwft-18">
          <mxGeometry x="0.3493" y="1" relative="1" as="geometry">
            <mxPoint as="offset" />
          </mxGeometry>
        </mxCell>
        <mxCell id="PWz0KlF3nAsmwiw8dwft-19" style="edgeStyle=orthogonalEdgeStyle;rounded=0;orthogonalLoop=1;jettySize=auto;html=1;exitX=0;exitY=0.5;exitDx=0;exitDy=0;" edge="1" parent="WIyWlLk6GJQsqaUBKTNV-1" source="PWz0KlF3nAsmwiw8dwft-14" target="PWz0KlF3nAsmwiw8dwft-16">
          <mxGeometry relative="1" as="geometry" />
        </mxCell>
        <mxCell id="PWz0KlF3nAsmwiw8dwft-22" value="是" style="edgeLabel;html=1;align=center;verticalAlign=middle;resizable=0;points=[];" vertex="1" connectable="0" parent="PWz0KlF3nAsmwiw8dwft-19">
          <mxGeometry x="0.409" y="-1" relative="1" as="geometry">
            <mxPoint as="offset" />
          </mxGeometry>
        </mxCell>
        <mxCell id="PWz0KlF3nAsmwiw8dwft-14" value="新解能量是否&lt;div&gt;低于当前解&lt;/div&gt;" style="rhombus;whiteSpace=wrap;html=1;shadow=0;fontFamily=Helvetica;fontSize=12;align=center;strokeWidth=1;spacing=6;spacingTop=-4;" vertex="1" parent="WIyWlLk6GJQsqaUBKTNV-1">
          <mxGeometry x="150" y="360" width="130" height="80" as="geometry" />
        </mxCell>
        <mxCell id="PWz0KlF3nAsmwiw8dwft-16" value="接受新解" style="shape=process;whiteSpace=wrap;html=1;backgroundOutline=1;" vertex="1" parent="WIyWlLk6GJQsqaUBKTNV-1">
          <mxGeometry x="50" y="484" width="100" height="60" as="geometry" />
        </mxCell>
        <mxCell id="PWz0KlF3nAsmwiw8dwft-17" value="按照Metropolis&lt;div&gt;准则判断&lt;/div&gt;" style="shape=process;whiteSpace=wrap;html=1;backgroundOutline=1;" vertex="1" parent="WIyWlLk6GJQsqaUBKTNV-1">
          <mxGeometry x="280" y="484" width="100" height="60" as="geometry" />
        </mxCell>
      </root>
    </mxGraphModel>
  </diagram>
</mxfile>
